PathFileType	4	(X/Y/Z)	C:/Users/beibeiliu/ov580/test_trc/User1\sequence.22_training_dense_left.trc
DataRate	CameraRate	NumFrames	NumMarkers	Units	OrigDataRate	OrigDataStartFrame	OrigNumFrames
120	120	14	19	mm	120	69	273
Frame#	Time	ThumbCMC			ThumbMCP			ThumbIP			ThumbTip			IndexMCP			IndexPIP			IndexTip			MiddleMCP			MiddlePIP			MiddleTip			RingMCP			RingPIP			RingTip			PinkyMCP			PinkyPIP			PinkyTip			BackHand1			BackHand2			BackHand3	
		X0	Y0	Z0	X1	Y1	Z1	X2	Y2	Z2	X3	Y3	Z3	X4	Y4	Z4	X5	Y5	Z5	X6	Y6	Z6	X7	Y7	Z7	X8	Y8	Z8	X9	Y9	Z9	X10	Y10	Z10	X11	Y11	Z11	X12	Y12	Z12	X13	Y13	Z13	X14	Y14	Z14	X15	Y15	Z15	X16	Y16	Z16	X17	Y17	Z17	X18	Y18	Z18	
68	0.566667	-180.224	97.1374	51.3788	-151.714	95.7059	27.471	-140.182	98.2443	4.66292	-123.238	100.275	-15.7643	-185.952	109.653	-30.5012	-162.86	100.734	-50.0265	-142.553	85.6702	-57.9145	-188.865	83.7775	-37.2903	-159.38	69.8053	-27.6186	-168.004	70.0225	10.6009	-190.043	62.3641	-30.2296	-163.564	52.2658	-9.86881	-179.66	53.5508	18.0868	-196.103	37.1211	-22.6658	-174.311	40.6833	-0.908985	-192.776	53.7571	21.3994	-234.249	65.3681	11.421	-240.653	53.9252	45.8827	-223.503	89.9199	37.3203	
69	0.575	-184.231	94.681	50.095	-155.448	97.3059	23.4918	-141.027	102.116	1.25028	-125.007	103.301	-15.64	-187.558	106.005	-32.5817	-164.033	95.2125	-50.2797	-141.166	82.6825	-57.2407	-185.778	76.0252	-38.3987	-156.897	67.082	-27.3022	-168.006	69.5612	12.6002	-186.301	52.2493	-29.4205	-159.223	48.209	-11.2148	-174.396	55.3364	18.7108	-189.302	31.754	-20.7105	-168.314	39.3202	-0.306807	-184.709	48.7201	24.4869	-233.236	54.3896	15.758	-235.57	45.6806	51.3468	-224.228	84.4109	37.7508	
70	0.583333	-185.187	97.7668	48.5721	-159.95	96.2244	23.2201	-143.867	102.538	-0.903458	-129.521	105.068	-19.8166	-190.929	99.417	-34.9972	-170.233	94.6706	-50.1185	-139.49	79.7265	-58.4452	-187.507	73.7666	-36.8713	-155.73	66.157	-27.3806	-163.728	71.5677	10.5627	-184.027	46.7245	-28.7085	-155.48	51.1465	-6.63944	-175.24	54.3874	22.0175	-182.713	26.4987	-17.763	-161.843	33.297	1.33247	-184.239	48.6155	25.2829	-229.662	46.2505	14.5222	-230.267	45.5198	52.6796	-224.652	79.6578	37.7578	
71	0.591667	-189.096	96.866	43.3564	-160.742	99.2146	23.7741	-149.468	100.004	-3.56487	-132.85	104.641	-22.4116	-193.273	86.4668	-36.3197	-168.334	84.5472	-52.6896	-139.56	76.1683	-58.7396	-188.399	65.0162	-37.9072	-154.719	66.1705	-27.5349	-165.433	69.5458	12.7835	-178.471	43.6972	-26.8677	-153.351	47.1696	-9.8058	-172.405	52.2666	23.3023	-182.874	21.2546	-13.31	-159.533	34.2909	3.82409	-180.62	47.2787	28.3992	-226.068	39.6646	15.111	-229.097	38.5894	52.6531	-225.824	77.2733	35.3677	
72	0.6	-191.956	95.1064	46.5721	-165.795	98.2939	20.785	-153	102.599	-5.4552	-141.093	101.819	-25.4732	-196.627	79.068	-37.9186	-173.621	75.8227	-53.9194	-145.824	73.5008	-60.0847	-186.069	54.92	-38.1156	-154.191	58.5551	-24.2939	-164.198	64.0332	11.3849	-177.382	35.7796	-24.9705	-151.306	46.837	-5.89106	-170.471	53.0538	23.6417	-179.398	19.759	-11.0065	-156.069	31.3985	5.08988	-175.464	42.4163	32.4649	-224.984	30.366	20.3627	-227.199	34.0796	58.2072	-227.055	67.3583	37.3266	
73	0.608333	-197.049	90.6837	45.1048	-173.619	94.2707	15.6068	-160.324	98.1578	-11.7444	-145.775	102.895	-27.0863	-201.776	73.3772	-37.4704	-177.339	72.9991	-56.6283	-146.293	66.8286	-62.1156	-189.606	50.883	-36.9596	-156.976	55.0731	-29.2454	-166.003	61.8707	11.946	-179.561	31.8399	-24.2358	-152.455	46.0173	-5.31078	-170.634	49.2286	23.8541	-173.095	15.419	-9.6273	-153.588	28.9263	7.92495	-177.922	41.3216	29.4631	-222.59	27.463	19.8286	-224.276	24.764	55.4104	-228.286	60.5686	35.1422	
74	0.616667	-200.751	85.3399	41.5605	-176.165	95.4089	13.8614	-164.811	95.6234	-14.6186	-151.352	102.422	-30.2752	-203.097	64.6208	-38.725	-179.671	63.1074	-56.9936	-150.748	65.2731	-64.8152	-188.118	44.0839	-38.6928	-157.419	52.2896	-28.847	-163.785	63.14	7.8474	-179.575	27.6251	-23.1485	-150.296	42.2053	-4.16296	-166.238	47.2009	20.8013	-171.115	8.77493	-6.76335	-153.974	27.6673	4.58561	-174.818	39.6563	28.4235	-218.071	18.0059	25.1619	-224.278	25.3446	59.2797	-229.29	56.3892	36.0444	
75	0.625	-204.449	85.4716	38.5016	-180.213	90.8763	11.2948	-170.205	95.1659	-13.6478	-156.581	99.3495	-32.3484	-205.559	54.5487	-39.335	-179.753	56.1589	-58.1766	-154.449	61.8676	-66.7616	-190.152	37.9357	-37.5381	-157.933	49.2689	-29.4818	-168.189	60.1315	9.46295	-174.455	21.2941	-21.0518	-152.031	42.8859	-7.49873	-171.126	45.5397	24.3895	-171.532	7.0967	-4.60411	-150.576	26.3599	5.94245	-174.52	39.6892	27.8494	-217.82	16.3054	21.622	-221.222	21.786	62.3327	-230.554	48.4779	38.994	
76	0.633333	-207.541	82.0965	34.8161	-184.167	90.4257	10.212	-174.277	88.7481	-16.5943	-161.547	97.6372	-36.2595	-210.328	53.5036	-39.4905	-186.086	54.7418	-60.2791	-157.69	55.8876	-66.7227	-188.543	32.9384	-38.3903	-158.283	47.1493	-29.6786	-167.779	60.1948	5.58669	-176.036	20.4978	-22.1443	-150.769	40.234	-4.87652	-168.198	44.0601	21.4229	-165.797	3.67764	-4.80352	-149.991	26.5636	4.67002	-175.527	38.1285	29.9307	-214.34	11.0592	27.4562	-218.003	12.6985	60.0176	-231.153	41.9039	34.8981	
77	0.641667	-209.323	75.8034	37.4116	-188.198	84.9491	8.02713	-177.38	89.5068	-18.3393	-166.604	94.2807	-36.7915	-210.391	44.9349	-39.4751	-187.533	48.4476	-60.953	-158.199	53.0483	-69.5824	-191.008	30.2795	-37.9935	-162.151	47.2862	-32.7524	-170.389	55.9262	5.30566	-172.958	17.9666	-21.5541	-152.335	39.8332	-4.91843	-171.936	43.4895	22.2221	-164.683	4.8491	-6.46422	-151.858	29.1019	5.10381	-174.017	36.4262	24.7593	-214.32	4.33365	26.3397	-214.919	11.4535	62.2866	-230.825	36.8732	35.6696	
78	0.65	-211.883	76.7301	36.5346	-191.707	82.437	4.72114	-181.87	84.7664	-19.4163	-171.719	87.6944	-40.0068	-210.971	41.4094	-41.0645	-192.573	45.0916	-60.6454	-164.858	50.3867	-69.9984	-191.545	22.7461	-34.9761	-162.445	47.4452	-29.6347	-173.911	57.2029	4.23084	-175.93	13.8628	-21.4355	-152.289	37.924	-7.26895	-169.335	43.0924	18.8161	-166.792	1.35904	-3.79038	-152.924	29.1247	5.81407	-174.784	35.1815	27.0794	-211.585	5.13173	28.8855	-212.974	10.0371	61.3126	-230.054	37.093	36.9654	
79	0.658333	-212.306	70.6232	34.9469	-193.829	80.2209	5.03379	-185.747	84.1394	-22.3872	-176.114	86.7916	-42.6034	-213.099	34.6776	-38.4403	-189.879	38.9915	-61.8165	-168.653	46.492	-72.0593	-190.872	19.8923	-35.557	-166.226	43.0455	-33.8396	-174.244	51.5474	3.79358	-172.981	13.7888	-23.9741	-154.087	35.8065	-8.94774	-171.541	42.0659	17.6074	-164.054	0.209581	-4.59273	-150.416	25.8391	3.69535	-173.301	33.0369	26.4752	-208.352	-0.462177	30.6955	-213.387	6.84775	62.0364	-230.993	30.8059	37.9306	
80	0.666667	-212.788	66.3031	34.7192	-195.735	80.1134	5.99068	-188.85	77.007	-22.6905	-178.39	81.277	-42.3565	-213.791	30.0438	-41.9254	-192.302	34.1172	-62.4895	-169.768	45.5691	-74.6192	-192.052	16.6458	-35.7349	-165.744	40.5546	-32.5891	-176.659	50.751	1.77461	-176.567	10.1936	-22.3914	-157.599	35.3622	-14.6133	-175.299	40.8106	16.7498	-158.917	-1.23764	-4.52951	-154.198	24.9429	1.58481	-173.176	32.0872	27.2662	-207.857	-6.95011	27.4857	-210.324	7.31003	63.4735	-229.725	28.183	39.8141	
81	0.675	-214.631	68.3588	34.9719	-196.978	76.179	3.39668	-191.313	76.129	-24.0054	-180.919	79.1954	-43.768	-217.027	27.4623	-38.3529	-197.171	28.6369	-59.7259	-170.381	38.8035	-73.5381	-195.36	16.2453	-36.5333	-170.297	40.3615	-36.0087	-176.055	46.6844	3.35076	-175.373	6.41072	-21.0357	-155.519	31.828	-14.1812	-174.897	39.6641	17.4624	-162.328	0.499287	-5.85425	-154.514	25.2008	1.59464	-172.883	30.0404	29.851	-205.326	-7.82966	31.5563	-205.082	1.89082	64.9231	-227.863	25.2319	40.2719	
